#!OML:ASF I:\Actors\actors\Patient Classification 2\Patient 1\Session 1\actor1.ASF
:FULLY-SPECIFIED
:DEGREES
770
root -0.735468 18.4001 6.80397 -7.39569 -2.02019 -1.44636
lowerback 5.34972 0.707949 -1.23866
upperback -2.04883 0.866987 0.277259
thorax -5.14843 0.474709 0.89825
lowerneck -14.1444 -1.11189 -0.683931
upperneck 21.8627 -1.88604 2.04882
head 9.23526 -0.715194 0.589684
rclavicle 2.00276e-014 -7.35503e-015
rhumerus -52.2447 -5.75636 -87.0773
rradius 43.1174
rwrist 6.46708
rhand 3.72458 -40.0911
rfingers 7.12502
rthumb 29.1527 -67.8285
lclavicle 2.00276e-014 -7.35503e-015
lhumerus -48.8991 6.47683 84.8671
lradius 41.8604
lwrist 10.5579
lhand -4.90601 -13.5876
lfingers 7.12502
lthumb 20.8837 15.3083
rfemur 20.3572 2.96383 15.8929
rtibia -1.74931e-014
rfoot -20.8648 -11.179
rtoes -7.25825
lfemur 8.03521 -4.88015 -13.8819
ltibia 22.0181
lfoot -23.5883 10.1127
ltoes -56.3036
771
root -0.729451 18.4028 6.79224 -7.36725 -2.14575 -1.44573
lowerback 5.26636 0.733789 -1.15428
upperback -2.00049 0.908886 0.277127
thorax -5.05008 0.49196 0.847997
lowerneck -14.1979 -1.13913 -0.620642
upperneck 21.8891 -1.93032 2.00649
head 9.2541 -0.734827 0.558961
rclavicle -1.1281e-014 3.57812e-015
rhumerus -51.9418 -5.86984 -86.7343
rradius 42.9689
rwrist 7.02618
rhand -0.0191933 -38.0408
rfingers 7.12502
rthumb 25.572 -66.3442
lclavicle -1.1281e-014 3.57812e-015
lhumerus -48.546 6.80486 84.3155
lradius 41.8638
lwrist 10.4138
lhand -5.14103 -13.7049
lfingers 7.12502
lthumb 20.6579 15.2158
rfemur 20.2598 3.08988 15.8934
rtibia 1.59028e-015
rfoot -20.8324 -11.2263
rtoes -7.49963
lfemur 8.00316 -4.88257 -13.9211
ltibia 21.9958
lfoot -23.6206 10.2084
ltoes -56.2647
772
root -0.722626 18.4059 6.77802 -7.34819 -2.23174 -1.45533
lowerback 5.24145 0.738341 -1.07942
upperback -1.95253 0.921679 0.29491
thorax -4.98514 0.495667 0.823823
lowerneck -14.2086 -1.15051 -0.502729
upperneck 21.8357 -1.93388 1.83897
head 9.23455 -0.745609 0.481155
rclavicle -1.63997e-015 -8.15017e-015
rhumerus -51.6253 -6.05914 -86.3202
rradius 42.7706
rwrist 7.59142
rhand -2.27428 -36.653
rfingers 7.12502
rthumb 23.4103 -65.2491
lclavicle -1.63997e-015 -8.15017e-015
lhumerus -48.202 7.24737 83.7602
lradius 41.8419
lwrist 10.2869
lhand -5.24433 -13.7208
lfingers 7.12502
lthumb 20.5586 15.2105
rfemur 20.1755 3.17661 15.8979
rtibia 5.08889e-014
rfoot -20.7836 -11.279
rtoes -7.51489
lfemur 7.96877 -4.86724 -13.9386
ltibia 21.9693
lfoot -23.6287 10.2727
ltoes -56.2384
773
root -0.716972 18.4087 6.76126 -7.32193 -2.21466 -1.42347
lowerback 5.28331 0.712961 -1.0942
upperback -1.94 0.886797 0.305367
thorax -4.99546 0.479019 0.845878
lowerneck -14.162 -1.14132 -0.402429
upperneck 21.7544 -1.91704 1.72706
head 9.19521 -0.74272 0.428199
rclavicle -3.77691e-015 2.78299e-015
rhumerus -51.3681 -6.36598 -85.8008
rradius 42.4865
rwrist 8.23992
rhand -3.05278 -36.1931
rfingers 7.12502
rthumb 22.6633 -64.8824
lclavicle -3.77691e-015 2.78299e-015
lhumerus -47.9021 7.75416 83.2436
lradius 41.7616
lwrist 10.2012
lhand -5.62913 -13.724
lfingers 7.12502
lthumb 20.1888 15.2469
rfemur 20.0919 3.16812 15.8401
rtibia 4.29375e-014
rfoot -20.7578 -11.2961
rtoes -7.17706
lfemur 7.89413 -4.84714 -13.9787
ltibia 21.9422
lfoot -23.5804 10.252
ltoes -56.2149
774
root -0.713138 18.4121 6.74478 -7.26901 -2.20124 -1.37566
lowerback 5.31729 0.689603 -1.1186
upperback -1.95695 0.853063 0.298298
thorax -5.03197 0.463224 0.854995
lowerneck -14.0234 -1.11639 -0.38142
upperneck 21.6023 -1.88833 1.74593
head 9.11635 -0.727509 0.435219
rclavicle 4.72114e-015 1.19271e-015
rhumerus -51.1575 -6.76963 -85.2466
rradius 42.1624
rwrist 8.82971
rhand -3.26117 -36.1514
rfingers 7.12502
rthumb 22.4633 -64.865
lclavicle 4.72114e-015 1.19271e-015
lhumerus -47.6085 8.47705 82.6398
lradius 41.5195
lwrist 9.92398
lhand -6.22271 -13.9177
lfingers 7.12502
lthumb 19.6182 15.1125
rfemur 19.9714 3.16301 15.7662
rtibia 1.59028e-014
rfoot -20.7259 -11.2973
rtoes -6.96774
lfemur 7.78752 -4.8538 -14.0342
ltibia 21.9176
lfoot -23.5368 10.2156
ltoes -56.1006
775
root -0.709855 18.4159 6.72821 -7.21221 -2.20799 -1.3218
lowerback 5.35631 0.680807 -1.12733
upperback -1.97252 0.839567 0.285405
thorax -5.07004 0.456855 0.847307
lowerneck -13.9217 -1.10565 -0.506958
upperneck 21.4925 -1.87758 1.90249
head 9.06222 -0.717137 0.511409
rclavicle -2.08724e-014 9.34288e-015
rhumerus -50.9547 -7.22141 -84.6962
rradius 41.8744
rwrist 9.25757
rhand -3.34855 -36.3517
rfingers 7.12502
rthumb 22.3794 -65.0754
lclavicle -2.08724e-014 9.34288e-015
lhumerus -47.3181 9.36018 81.9728
lradius 41.1952
lwrist 9.3853
lhand -6.75604 -14.2786
lfingers 7.12502
lthumb 19.1054 14.803
rfemur 19.8377 3.1774 15.6914
rtibia 6.36111e-015
rfoot -20.6786 -11.313
rtoes -6.93192
lfemur 7.68002 -4.87135 -14.0937
ltibia 21.9015
lfoot -23.5383 10.1277
ltoes -55.8554
776
root -0.706876 18.4189 6.71145 -7.18341 -2.23203 -1.30407
lowerback 5.42647 0.684802 -1.12625
upperback -1.97168 0.844542 0.292665
thorax -5.10931 0.459584 0.852972
lowerneck -13.9583 -1.11576 -0.634727
upperneck 21.5296 -1.89195 2.02978
head 9.0846 -0.719917 0.574447
rclavicle -1.09332e-014 -5.96354e-015
rhumerus -50.8053 -7.62963 -84.1672
rradius 41.6885
rwrist 9.54555
rhand -3.31558 -37.2054
rfingers 7.12502
rthumb 22.4111 -65.9253
lclavicle -1.09332e-014 -5.96354e-015
lhumerus -47.0546 10.0652 81.4484
lradius 40.9641
lwrist 8.97987
lhand -7.2033 -14.4654
lfingers 7.12502
lthumb 18.6753 14.6581
rfemur 19.7399 3.20528 15.6606
rtibia -7.95139e-015
rfoot -20.6835 -11.2733
rtoes -6.41641
lfemur 7.59433 -4.86911 -14.11
ltibia 21.9011
lfoot -23.5393 10.0701
ltoes -55.7116
777
root -0.704415 18.4213 6.69584 -7.16531 -2.27401 -1.34724
lowerback 5.49904 0.682557 -1.09795
upperback -1.96379 0.844635 0.328349
thorax -5.14248 0.459443 0.873328
lowerneck -14.0414 -1.11831 -0.597232
upperneck 21.6051 -1.88842 1.95406
head 9.12494 -0.722375 0.542429
rclavicle 1.36416e-014 -5.36719e-015
rhumerus -50.7213 -7.87071 -83.7225
rradius 41.5984
rwrist 9.68588
rhand -3.23455 -38.4036
rfingers 7.12502
rthumb 22.4889 -67.1141
lclavicle 1.36416e-014 -5.36719e-015
lhumerus -46.8293 10.5433 81.0981
lradius 40.8279
lwrist 8.88348
lhand -7.52857 -14.4323
lfingers 7.12502
lthumb 18.3624 14.721
rfemur 19.6671 3.24108 15.705
rtibia -2.06736e-014
rfoot -20.7022 -11.2289
rtoes -5.96128
lfemur 7.52121 -4.85149 -14.0602
ltibia 21.9126
lfoot -23.5099 10.0846
ltoes -55.7009
